# AST/ASF file generated using VICON BodyLanguage
# -----------------------------------------------
:version 1.10
:name VICON
:units
  mass 1.0
  length 0.45
  angle deg
:documentation
   .ast/.asf automatically generated from VICON data using
   VICON BodyBuilder and BodyLanguage model FoxedUp or BRILLIANT.MOD
:root
   order TX TY TZ RX RY RZ
   axis XYZ
   position 0 0 0  
   orientation 0 0 0 
:bonedata
  begin
     id 1 
     name lhipjoint
     direction 0.521689 -0.742065 0.420928 
     length 2.47002 
     axis 0 0 0  XYZ
  end
  begin
     id 2 
     name lfemur
     direction 0.34202 -0.939693 0  
     length 7.24654  
     axis 0 0 20  XYZ
    dof rx ry rz
    limits (-160.0 20.0)
           (-70.0 70.0)
           (-60.0 70.0)
  end
  begin
     id 3 
     name ltibia
     direction 0.34202 -0.939693 0   
     length 8.04849   
     axis 0 0 20   XYZ
    dof rx
    limits (-10.0 170.0)
  end
  begin
     id 4 
     name lfoot
     direction 0.0745411 -0.2048 0.975961   
     length 1.72367   
     axis -90 7.62852e-016 20   XYZ
    dof rx rz
    limits (-45.0 90.0)
           (-70.0 20.0)
  end
  begin
     id 5 
     name ltoes
     direction 1.53556e-011 -4.21901e-011 1   
     length 0.87311   
     axis -90 7.62852e-016 20   XYZ
    dof rx
    limits (-90.0 20.0)
  end
  begin
     id 6 
     name rhipjoint
     direction -0.52849 -0.738415 0.418857   
     length 2.48223  
     axis 0 0 0  XYZ 
  end
  begin
     id 7 
     name rfemur
     direction -0.34202 -0.939693 0   
     length 7.15571   
     axis 0 0 -20   XYZ
    dof rx ry rz
    limits (-160.0 20.0)
           (-70.0 70.0)
           (-70.0 60.0)
  end
  begin
     id 8 
     name rtibia
     direction -0.34202 -0.939693 0   
     length 7.81659   
     axis 0 0 -20   XYZ
    dof rx
    limits (-10.0 170.0)
 end
 begin
     id 9 
     name rfoot
     direction -0.0917348 -0.252039 0.963359   
     length 1.84382  
     axis -90 -7.62852e-016 -20   XYZ
    dof rx rz
    limits (-45.0 90.0)
           (-20.0 70.0)
  end
  begin
     id 10 
     name rtoes
     direction -1.53551e-011 -4.21879e-011 1   
     length 0.927771   
     axis -90 -7.62852e-016 -20   XYZ
    dof rx
    limits (-90.0 20.0)
  end
  begin
     id 11 
     name lowerback
     direction 0.00583058 0.999822 0.0179296   
     length 2.1429   
     axis 0 0 0   XYZ
    dof rx ry rz
    limits (-20.0 45.0)
           (-30.0 30.0)
           (-30.0 30.0)
  end
  begin
     id 12 
     name upperback
     direction -0.0137999 0.999752 -0.0175071   
     length 2.14252   
     axis 0 0 0   XYZ
    dof rx ry rz
    limits (-20.0 45.0)
           (-30.0 30.0)
           (-30.0 30.0)
  end
  begin
     id 13 
     name thorax
     direction -0.0158036 0.99955 -0.0254909   
     length 2.1383   
     axis 0 0 0   XYZ
    dof rx ry rz
    limits (-20.0 45.0)
           (-30.0 30.0)
           (-30.0 30.0)
  end
  begin
     id 14 
     name lowerneck
     direction -0.0101179 0.999403 -0.0330262   
     length 1.65808   
     axis 0 0 0   XYZ
    dof rx ry rz
    limits (-20.0 45.0)
           (-30.0 30.0)
           (-30.0 30.0)
  end
  begin
     id 15 
     name upperneck
     direction 0.0497734 0.995978 -0.074501   
     length 1.5897   
     axis 0 0 0   XYZ
    dof rx ry rz
    limits (-20.0 45.0)
           (-30.0 30.0)
           (-30.0 30.0)
  end
  begin
     id 16
     name head
     direction 0.0189524 0.999519 -0.0245438  
     length 1.74024  
     axis 0 0 0   XYZ
    dof rx ry rz
    limits (-20.0 45.0)
           (-30.0 30.0)
           (-30.0 30.0)
  end
  begin
     id 17 
     name lclavicle
     direction 0.945604 0.324422 0.0241537  
     length 3.59089  
     axis 0 0 0   XYZ
    dof ry rz
    limits (-20.0 10.0)
           (0.0 20.0)
  end
  begin
     id 18 
     name lhumerus
     direction 1 -4.48964e-011 -2.63524e-027   
     length 5.2391   
     axis 180 -30 -90   XYZ
    dof rx ry rz
    limits (-60.0 90.0)
           (-90.0 90.0)
           (-90.0 90.0)
  end
  begin
     id 19
     name lradius
     direction 1 -4.48969e-011 3.86978e-028   
     length 3.31467   
     axis 180 -30 -90   XYZ
    dof rx
    limits (-10.0 170.0)
  end
  begin
     id 20
     name lwrist
     direction 1 -4.48963e-011 7.20928e-028   
     length 1.65734   
     axis -5.52449e-016 90 90   XYZ
    dof ry
    limits (-180.0 0.0)
 end
  begin
     id 21 
     name lhand
     direction 1 -4.48964e-011 1.44186e-027   
     length 0.9659   
     axis -9.20027e-016 90 90   XYZ
    dof rx rz
    limits (-90.0 90.0)
           (-45.0 45.0)
  end
  begin
     id 22 
     name lfingers
     direction 1 -4.48965e-011 2.88371e-027   
     length 0.778733   
     axis -1.84005e-015 90 90   XYZ
    dof rx
    limits (0.0 90.0)
  end
  begin
     id 23
     name lthumb
     direction 0.707107 -6.34931e-011 0.707107   
     length 1.11811   
     axis -90 45 2.85299e-015   XYZ
    dof rx rz
    limits (-45.0 45.0)
           (-45.0 45.0)
  end
  begin
     id 24 
     name rclavicle
     direction -0.923762 0.370785 0.0958234   
     length 3.54196  
     axis 0 0 0   XYZ 
    dof ry rz
    limits (-10.0 20.0)
           (-20.0 0.0)
  end
  begin
     id 25 
     name rhumerus
     direction -1 -4.48966e-011 1.18702e-017  
     length 5.30252   
     axis 180 30 90   XYZ
    dof rx ry rz
    limits (-90.0 60.0)
           (-90.0 90.0)
           (-90.0 90.0)
  end
  begin
     id 26 
     name rradius
     direction -1 -4.48966e-011 4.46736e-027   
     length 3.67875   
     axis 180 30 90   XYZ
    dof rx
    limits (-10.0 170.0)
  end
  begin
     id 27 
     name rwrist
     direction -1 -4.48966e-011 7.20928e-028   
     length 1.83937   
     axis -5.52449e-016 -90 -90   XYZ
    dof ry
    limits (-180.0 0.0)
  end
  begin
     id 28
     name rhand
     direction -1 -4.48973e-011 1.44186e-027   
     length 0.594811   
     axis -9.20027e-016 -90 -90   XYZ
    dof rx rz
    limits (-90.0 90.0)
           (-45.0 45.0)
  end
  begin
     id 29
     name rfingers
     direction -1 -4.48963e-011 2.88371e-027   
     length 0.479552   
     axis -1.84005e-015 -90 -90   XYZ
    dof rx
    limits (0.0 90.0)
  end
  begin
     id 30
     name rthumb
     direction -0.707107 -6.34932e-011 0.707107   
     length 0.688544   
     axis -90 -45 -2.85299e-015   XYZ
    dof rx rz
    limits (-45.0 45.0)
           (-45.0 45.0)
  end
:hierarchy
  begin
    root lhipjoint rhipjoint lowerback
    lhipjoint lfemur
    lfemur ltibia
    ltibia lfoot
    lfoot ltoes
    rhipjoint rfemur
    rfemur rtibia
    rtibia rfoot
    rfoot rtoes
    lowerback upperback
    upperback thorax
    thorax lowerneck lclavicle rclavicle
    lowerneck upperneck
    upperneck head
    lclavicle lhumerus
    lhumerus lradius
    lradius lwrist
    lwrist lhand lthumb
    lhand lfingers
    rclavicle rhumerus
    rhumerus rradius
    rradius rwrist
    rwrist rhand rthumb
    rhand rfingers
  end

#!OML:ASF E:\acrobat2\Project_11_07_03\Capture day 1\Session 1\Acrobat.ASF
:FULLY-SPECIFIED
:DEGREES
664
root 11.7408 18.479 26.7791 384.008 -78.7793 -19.2593
lowerback -3.11404 -0.0388622 2.00698
upperback -3.42582 -0.145464 -0.696139
thorax -1.77744 -0.146813 -1.84088
lowerneck -0.0258086 -2.68331 -1.5357
upperneck 0.744487 -3.62299 4.14965
head 0.343059 -1.81056 1.52371
rclavicle -5.1684e-015 -3.18055e-015
rhumerus -21.1886 -42.5539 1.38758
rradius 21.0942
rwrist 8.68093
rhand -17.9645 -52.2796
rfingers 7.12502
rthumb 8.30457 277.904
lclavicle -5.1684e-015 -3.18055e-015
lhumerus 4.19099 14.4041 6.13511
lradius 21.0907
lwrist 7.02041
lhand -14.0861 -5.00878
lfingers 7.12502
lthumb 12.0461 24.6245
rfemur 10.8049 19.773 4.3034
rtibia -3.84646
rfoot -39.1453 -35.4464
rtoes 53.5025
lfemur 9.19172 -14.5032 -8.51198
ltibia -6.63713
lfoot -197.118 174.721
ltoes 45.9466
665
root 11.7289 18.4774 26.7644 383.794 -78.6566 -19.0006
lowerback -3.23593 -0.0324309 2.06935
upperback -3.40354 -0.140689 -0.713005
thorax -1.68645 -0.144705 -1.89348
lowerneck -0.260913 -2.70501 -1.60413
upperneck 0.944694 -3.6584 4.23723
head 0.448795 -1.82393 1.55847
rclavicle 2.32081e-014 -1.03368e-014
rhumerus -21.3032 -44.6145 1.82714
rradius 20.7434
rwrist 10.8551
rhand -18.0216 -51.8743
rfingers 7.12502
rthumb 8.2495 278.307
lclavicle 2.32081e-014 -1.03368e-014
lhumerus 4.6543 16.9333 6.96402
lradius 20.6633
lwrist 4.50382
lhand -13.7909 -5.35113
lfingers 7.12502
lthumb 12.3308 24.2653
rfemur 10.9926 20.0489 4.42583
rtibia -4.05542
rfoot -39.9525 -34.5869
rtoes 53.9131
lfemur 9.16571 -14.6231 -8.45649
ltibia -6.65013
lfoot -197.285 175.216
ltoes 44.3333
666
root 11.7164 18.4746 26.7494 383.969 -78.5318 -19.079
lowerback -3.40908 -0.0140635 2.21345
upperback -3.39951 -0.123419 -0.724539
thorax -1.58536 -0.138239 -1.98634
lowerneck -0.332473 -2.73392 -1.55093
upperneck 0.92693 -3.69515 4.17221
head 0.453895 -1.84157 1.52732
rclavicle -3.37934e-015 -7.95139e-016
rhumerus -21.2145 -42.8679 1.44384
rradius 20.9863
rwrist 9.3049
rhand -17.9906 -51.8091
rfingers 7.12502
rthumb 8.27943 278.373
lclavicle -3.37934e-015 -7.95139e-016
lhumerus 4.769 17.032 7.07471
lradius 20.6543
lwrist 4.51308
lhand -13.6703 -5.40753
lfingers 7.12502
lthumb 12.447 24.2018
rfemur 11.0933 20.1845 4.56743
rtibia -4.19219
rfoot -40.8975 -33.5748
rtoes 54.6184
lfemur 9.06193 -14.4552 -8.28186
ltibia -6.6422
lfoot -197.052 175.338
ltoes 44.1796
667
root 11.707 18.4749 26.7373 383.819 -78.4645 -18.9007
lowerback -3.4632 -0.00750287 2.30926
upperback -3.39613 -0.118135 -0.738373
thorax -1.55188 -0.137318 -2.0544
lowerneck -0.196728 -2.75668 -1.4265
upperneck 0.73573 -3.71685 3.94664
head 0.365097 -1.85545 1.43731
rclavicle -2.25124e-014 -6.36111e-015
rhumerus -21.3053 -41.5417 1.38857
rradius 21.2785
rwrist 8.09497
rhand -18.0246 -52.0214
rfingers 7.12502
rthumb 8.24658 278.16
lclavicle -2.25124e-014 -6.36111e-015
lhumerus 4.72235 16.3814 6.93008
lradius 20.7179
lwrist 5.25986
lhand -13.7522 -5.48868
lfingers 7.12502
lthumb 12.368 24.1255
rfemur 11.2096 20.2842 4.61752
rtibia -4.23076
rfoot -41.5123 -32.8025
rtoes 54.9939
lfemur 9.11212 -14.846 -8.37016
ltibia -6.7139
lfoot -197.495 175.55
ltoes 44.22
668
root 11.695 18.4747 26.7264 383.558 -78.4928 -18.6578
lowerback -3.49705 -0.0290635 2.35912
upperback -3.38006 -0.148672 -0.741707
thorax -1.51831 -0.152963 -2.08657
lowerneck 0.0619904 -2.73466 -1.38056
upperneck 0.42236 -3.67601 3.74004
head 0.218921 -1.84002 1.37062
rclavicle 4.47266e-016 2.3059e-014
rhumerus -21.1777 -39.8947 1.10687
rradius 21.6094
rwrist 6.3757
rhand -18.3186 -52.8645
rfingers 7.12502
rthumb 7.96281 277.305
lclavicle 4.47266e-016 2.3059e-014
lhumerus 4.56602 16.3692 6.83963
lradius 20.7281
lwrist 5.25426
lhand -13.8058 -5.57026
lfingers 7.12502
lthumb 12.3164 24.047
rfemur 11.3087 20.2015 4.54664
rtibia -4.29695
rfoot -41.6437 -32.5386
rtoes 55.1988
lfemur 9.24456 -15.0961 -8.4999
ltibia -6.80287
lfoot -197.887 175.702
ltoes 43.9241
669
root 11.685 18.473 26.7103 383.336 -78.3804 -18.4494
lowerback -3.50017 -0.0909036 2.42496
upperback -3.36121 -0.232358 -0.747109
thorax -1.50215 -0.195622 -2.13089
lowerneck 0.164797 -2.66657 -1.42207
upperneck 0.250389 -3.58067 3.77282
head 0.147819 -1.79476 1.39153
rclavicle -5.73991e-014 -4.77083e-015
rhumerus -20.9492 -39.4931 0.902672
rradius 21.6055
rwrist 6.00905
rhand -18.2566 -53.0759
rfingers 7.12502
rthumb 8.02268 277.096
lclavicle -5.73991e-014 -4.77083e-015
lhumerus 4.42998 16.4485 6.76236
lradius 20.7739
lwrist 5.20886
lhand -13.7726 -5.64512
lfingers 7.12502
lthumb 12.3483 23.9702
rfemur 11.4975 20.2527 4.63395
rtibia -4.43942
rfoot -41.7726 -32.4204
rtoes 55.3215
lfemur 9.22599 -15.0283 -8.40887
ltibia -6.7652
lfoot -197.652 175.535
ltoes 44.4552
670
root 11.6761 18.4712 26.6927 383.626 -78.1845 -18.744
lowerback -3.49799 -0.132035 2.57453
upperback -3.34679 -0.289774 -0.722694
thorax -1.49274 -0.226549 -2.19102
lowerneck -0.0514101 -2.58967 -1.50909
upperneck 0.47596 -3.48616 3.98984
head 0.256642 -1.74383 1.4707
rclavicle 1.21259e-014 5.56597e-015
rhumerus -20.8599 -41.0405 1.09766
rradius 21.2622
rwrist 7.66961
rhand -18.0894 -52.4523
rfingers 7.12502
rthumb 8.18405 277.726
lclavicle 1.21259e-014 5.56597e-015
lhumerus 4.45321 16.7872 6.84212
lradius 20.8013
lwrist 4.98625
lhand -13.6798 -5.73583
lfingers 7.12502
lthumb 12.4378 23.8741
rfemur 11.7159 20.5378 4.98674
rtibia -4.55357
rfoot -41.9954 -32.1223
rtoes 55.3151
lfemur 9.18281 -15.1049 -8.17012
ltibia -6.7405
lfoot -197.424 175.425
ltoes 45.1393
671
root 11.6658 18.4683 26.6758 383.749 -78.0583 -18.8344
lowerback -3.54531 -0.139077 2.66533
upperback -3.33725 -0.30238 -0.719758
thorax -1.45793 -0.233978 -2.23953
lowerneck -0.413285 -2.58827 -1.39938
upperneck 0.838674 -3.49427 3.94581
head 0.426216 -1.74091 1.43021
rclavicle 6.78353e-015 1.27222e-014
rhumerus -20.8834 -42.3516 1.27582
rradius 21.0265
rwrist 8.98951
rhand -18.2226 -51.986
rfingers 7.12502
rthumb 8.05547 278.188
lclavicle 6.78353e-015 1.27222e-014
lhumerus 4.57359 17.1581 6.96259
lradius 20.8127
lwrist 4.74913
lhand -13.6541 -5.72571
lfingers 7.12502
lthumb 12.4626 23.8827
rfemur 11.9042 21.043 5.27925
rtibia -4.66215
rfoot -42.1037 -31.9582
rtoes 55.0091
lfemur 9.14996 -15.176 -8.01375
ltibia -6.76021
lfoot -197.312 175.619
ltoes 44.8358
672
root 11.6558 18.4656 26.6589 383.345 -78.0396 -18.3424
lowerback -3.64982 -0.119917 2.5893
upperback -3.32799 -0.278222 -0.721315
thorax -1.38796 -0.219429 -2.19841
lowerneck -0.506536 -2.63875 -1.16696
upperneck 0.821717 -3.5562 3.55696
head 0.425244 -1.77114 1.26586
rclavicle 1.69712e-014 7.15625e-015
rhumerus -20.8769 -41.1041 1.08382
rradius 21.2871
rwrist 7.73503
rhand -18.2785 -51.9707
rfingers 7.12502
rthumb 8.0015 278.201
lclavicle 1.69712e-014 7.15625e-015
lhumerus 4.62422 16.9015 6.97658
lradius 20.8639
lwrist 5.17699
lhand -13.7094 -5.5766
lfingers 7.12502
lthumb 12.4093 24.0351
rfemur 12.0155 21.5845 5.32207
rtibia -4.77052
rfoot -41.9307 -32.1057
rtoes 54.5268
lfemur 9.06406 -15.1597 -8.03872
ltibia -6.74526
lfoot -197.164 175.803
ltoes 44.5405
673
root 11.6443 18.4649 26.6417 382.982 -78.0138 -17.9401
lowerback -3.72427 -0.12271 2.49598
upperback -3.30643 -0.281332 -0.688589
thorax -1.32335 -0.217602 -2.11281
lowerneck -0.398917 -2.6804 -1.11956
upperneck 0.59851 -3.60247 3.33388
head 0.334092 -1.79712 1.19042
rclavicle -1.29459e-014 -1.51076e-014
rhumerus -20.9417 -41.492 1.3504
rradius 21.369
rwrist 8.23855
rhand -18.0449 -51.8782
rfingers 7.12502
rthumb 8.22703 278.302
lclavicle -1.29459e-014 -1.51076e-014
lhumerus 4.58389 16.5186 6.93279
lradius 20.8997
lwrist 5.74302
lhand -13.8023 -5.547
lfingers 7.12502
lthumb 12.3198 24.0701
rfemur 12.1601 21.93 5.36698
rtibia -4.91827
rfoot -41.795 -32.3757
rtoes 54.2013
lfemur 9.02006 -15.135 -8.07398
ltibia -6.7166
lfoot -197.013 175.806
ltoes 44.9124
674
root 11.6311 18.4641 26.6257 383.029 -77.9555 -17.9577
lowerback -3.80646 -0.136106 2.5548
upperback -3.29716 -0.30292 -0.677418
thorax -1.26949 -0.228612 -2.13533
lowerneck -0.428947 -2.63355 -1.36291
upperneck 0.665653 -3.5443 3.65784
head 0.37001 -1.76724 1.3334
rclavicle 2.58669e-014 -7.95139e-015
rhumerus -20.8893 -41.4595 1.33742
rradius 21.3968
rwrist 8.28884
rhand -18.1997 -52.2348
rfingers 7.12502
rthumb 8.07757 277.94
lclavicle 2.58669e-014 -7.95139e-015
lhumerus 4.3854 15.5601 6.61305
lradius 21.1079
lwrist 6.75568
lhand -13.905 -5.56922
lfingers 7.12502
lthumb 12.2207 24.0538
rfemur 12.2434 21.981 5.45096
rtibia -5.02824
rfoot -41.6601 -32.6952
rtoes 53.8714
lfemur 8.98746 -15.0579 -7.97244
ltibia -6.71441
lfoot -196.791 175.545
ltoes 46.7284
675
root 11.62 18.4633 26.6127 383.19 -77.9626 -18.0353
lowerback -3.91564 -0.146495 2.66076
upperback -3.32039 -0.323461 -0.685149
thorax -1.23459 -0.241238 -2.20385
lowerneck -0.513046 -2.48769 -1.66434
upperneck 0.903732 -3.36126 4.1198
head 0.467998 -1.67288 1.53078
rclavicle -5.46658e-016 3.18055e-015
rhumerus -20.7076 -42.6552 1.39435
rradius 21.1698
rwrist 9.49811
rhand -18.3542 -52.4897
rfingers 7.12502
rthumb 7.92852 277.679
lclavicle -5.46658e-016 3.18055e-015
lhumerus 4.10714 14.6709 6.25328
lradius 21.3487
lwrist 7.49511
lhand -13.8582 -5.41986
lfingers 7.12502
lthumb 12.2659 24.2004
rfemur 12.1952 22.0376 5.4685
rtibia -5.04703
rfoot -41.8498 -32.5263
rtoes 54.0429
lfemur 8.89044 -14.8687 -7.84155
ltibia -6.6831
lfoot -196.402 175.142
ltoes 49.1166
676
root 11.61 18.4638 26.5986 383.52 -78.0145 -18.3021
lowerback -3.96893 -0.135155 2.77653
upperback -3.35303 -0.31383 -0.693565
thorax -1.23898 -0.239617 -2.27749
lowerneck -0.526593 -2.41226 -1.55487
upperneck 0.953822 -3.26212 4.04821
head 0.479191 -1.62269 1.48938
rclavicle 2.23633e-016 -7.15625e-015
rhumerus -20.5874 -44.3733 1.58637
rradius 20.8579
rwrist 11.2628
rhand -18.1831 -52.129
rfingers 7.12502
rthumb 8.09365 278.046
lclavicle 2.23633e-016 -7.15625e-015
lhumerus 4.0673 14.8419 6.20555
lradius 21.3543
lwrist 7.17097
lhand -13.6558 -5.12573
lfingers 7.12502
lthumb 12.461 24.4828
rfemur 12.1435 22.1812 5.50025
rtibia -5.10091
rfoot -42.2046 -32.0919
rtoes 54.5158
lfemur 8.83234 -14.833 -7.73595
ltibia -6.64139
lfoot -196.37 175.259
ltoes 49.5724
677
root 11.6009 18.4653 26.5835 383.69 -78.0247 -18.4392
lowerback -3.99715 -0.109058 2.95428
upperback -3.36739 -0.285522 -0.760275
thorax -1.23829 -0.229922 -2.44541
lowerneck -0.581776 -2.42766 -1.31073
upperneck 0.937594 -3.28096 3.83494
head 0.475006 -1.6316 1.37877
rclavicle 1.41883e-014 7.15625e-015
rhumerus -20.5805 -43.9026 1.40249
rradius 20.9107
rwrist 10.9541
rhand -18.0635 -51.7612
rfingers 7.12502
rthumb 8.20905 278.418
lclavicle 1.41883e-014 7.15625e-015
lhumerus 4.23508 15.2731 6.26434
lradius 21.2695
lwrist 6.73525
lhand -13.4663 -4.90593
lfingers 7.12502
lthumb 12.6437 24.6914
rfemur 12.0633 21.8593 5.39653
rtibia -5.10617
rfoot -41.9446 -31.8731
rtoes 54.8286
lfemur 8.77198 -14.7387 -7.64234
ltibia -6.60242
lfoot -196.346 175.675
ltoes 49.1531
